# xmcd
#
# Track frame offsets: 
#        150
#        10105
#        20939
#        38230
#        50650
#        66084
#        78883
#        92998
#        106759
#        120256
#        132712
#
# Disc length: 1991 seconds
#
# Revision: 1
# Processed by: cddbd v1.5.2PL0 Copyright (c) Steve Scherf et al.
# Submitted via: ExactAudioCopyFreeDBPlugin 1.0
#
DISCID=8e07c50b
DTITLE=Joel Savoy - Joel Savoy's Honky Tonk Merry-Go-Round
DYEAR=2013
DGENRE=Country
TTITLE0=She's My Five Foot Five
TTITLE1=Let's Elope Baby
TTITLE2=Four Walls
TTITLE3=You're Still on My Mind
TTITLE4=No Letter Today
TTITLE5=One Swell Foop
TTITLE6=Livin' on Memories of You
TTITLE7=The Color of the Blues
TTITLE8=Honky Tonk Angels
TTITLE9=Honky Tonk Merry-Go-Round
TTITLE10=Miss the Mississippi and You
EXTD=
EXTT0=
EXTT1=
EXTT2=
EXTT3=
EXTT4=
EXTT5=
EXTT6=
EXTT7=
EXTT8=
EXTT9=
EXTT10=
PLAYORDER=
